<svg width="40" height="40" viewBox="0 0 40 40" fill="none" xmlns="http://www.w3.org/2000/svg">
<path d="M26.6917 23.9633C26.6917 23.43 26.4667 23.1367 26.1183 22.9267C25.7683 22.7267 25.345 22.7017 24.7683 22.7017H22.1967V27.4017H23.3217V25.69H24.5217C24.9217 25.69 25.1717 25.73 25.3183 25.8983C25.5183 26.115 25.4917 26.5317 25.4917 26.815V27.3983H26.5917V26.4733C26.5883 26.0567 26.5633 25.8467 26.4117 25.6133C26.3117 25.48 26.1117 25.3133 25.8617 25.2233L25.895 25.21C26.195 25.09 26.695 24.715 26.695 23.965L26.6917 23.9633ZM25.2417 24.6417L25.195 24.6383C25.045 24.7267 24.87 24.735 24.645 24.735H23.295V23.685H24.6683C24.8683 23.685 25.0683 23.685 25.2183 23.7683C25.3817 23.8483 25.4783 24.0133 25.4683 24.1933C25.4683 24.3933 25.3933 24.5517 25.245 24.6433L25.2417 24.6417ZM33.8283 26.395H31.6667V27.395H33.84C34.9667 27.395 35.59 26.9317 35.59 25.9217C35.59 25.455 35.48 25.175 35.2783 24.9517C35.0233 24.73 34.625 24.63 34.0617 24.6067L33.435 24.5817C33.2617 24.5817 33.135 24.5817 33.01 24.5317C32.86 24.4817 32.76 24.3567 32.76 24.1817C32.76 24.0317 32.7883 23.905 32.91 23.8317C33.0483 23.755 33.205 23.7217 33.3633 23.7317H35.4133V22.7283H33.1633C31.99 22.7283 31.5667 23.4567 31.5667 24.1283C31.5667 25.6283 32.86 25.5533 33.9117 25.5783C34.085 25.5783 34.2117 25.6033 34.2867 25.6783C34.3633 25.7283 34.4233 25.855 34.4233 25.9783C34.4233 26.1067 34.365 26.2283 34.29 26.2783C34.19 26.3667 34.04 26.395 33.8283 26.395ZM0 0V16.8267L1.35 13.7H4.26667L4.64167 14.4733V13.7H8.04667L8.79667 15.4L9.525 13.7117H20.3617C20.8533 13.7117 21.295 13.8067 21.6217 14.105V13.7217H24.6V14.105C25.1117 13.8217 25.7433 13.7217 26.4667 13.7217H30.81L31.21 14.4983V13.7217H34.4067L34.83 14.4967V13.72H37.9267V20.3H34.7833L34.1833 19.3V20.275H30.2617L29.835 19.225H28.8633L28.4133 20.2483H26.3917C25.5917 20.2483 24.9917 20.075 24.5917 19.8483V20.2483H19.775V18.775C19.775 18.575 19.725 18.575 19.6 18.55H19.425V20.2767H10.1117V19.4767L9.76167 20.2767H7.81667L7.48 19.4767V20.2517H3.725L3.29833 19.2117H2.33333L1.90667 20.2517H0V40H39.6433V28.1533C39.1933 28.3783 38.6217 28.4533 38.0217 28.4533H35.15V28.0283C34.8 28.3033 34.2 28.4533 33.6267 28.4533H24.5167V26.9533C24.5167 26.7533 24.4867 26.7533 24.3167 26.7533H24.1917V28.4567H21.1917V26.68C20.695 26.9067 20.12 26.93 19.645 26.9067H19.2883V28.4317H15.655L14.755 27.4033L13.805 28.4033H7.90333V21.8533H13.92L14.7833 22.8567L15.7067 21.8567H19.7267C20.1933 21.8567 20.96 21.9067 21.2967 22.2317V21.8317H24.925C25.2617 21.8317 25.9983 21.9067 26.43 22.2067V21.8067H31.8717V22.2067C32.1433 21.9333 32.7183 21.8067 33.21 21.8067H36.36V22.2067C36.6833 21.9567 37.1333 21.8067 37.76 21.8067H39.72V0H0ZM35.26 24.925C35.2667 24.9333 35.27 24.945 35.2767 24.9517C35.2933 24.9683 35.3167 24.9683 35.33 24.985L35.26 24.9267V24.925ZM39.7133 21.8033H39.8217V22.7283H39.7133V21.8033ZM39.775 25.05V25.0417C39.725 25 39.6983 24.9617 39.65 24.925C39.4 24.67 39 24.5667 38.3767 24.55L37.7767 24.53C37.5767 24.53 37.4533 24.5183 37.3267 24.48C37.1767 24.43 37.0767 24.305 37.0767 24.13C37.0767 23.98 37.1267 23.8633 37.2267 23.79C37.3533 23.715 37.4767 23.7067 37.6767 23.7067H39.715V22.7267H37.5767C36.4267 22.7267 35.9767 23.455 35.9767 24.1267C35.9767 25.6267 37.2767 25.5517 38.3267 25.5767C38.5 25.5767 38.6267 25.6017 38.7 25.6767C38.7767 25.7267 38.8267 25.8533 38.8267 25.9767C38.8267 26.0933 38.77 26.2067 38.6767 26.2767C38.6017 26.37 38.45 26.3933 38.2267 26.3933H36.08V27.4017H38.225C38.925 27.4017 39.4483 27.205 39.725 26.8017H39.775C39.925 26.5783 40 26.3017 40 25.93C40 25.53 39.925 25.28 39.775 25.0533V25.05ZM30.995 23.68V22.7083H27.27V27.43H30.995V26.455H28.3783V25.505H30.9333V24.5317H28.38V23.6817L30.995 23.68ZM22.5167 14.645H23.6583V19.3333H22.5183L22.5167 14.645ZM21.8767 15.905L21.865 15.915C21.865 15.3917 21.6483 15.0817 21.2983 14.875C20.9367 14.6667 20.515 14.65 19.9483 14.65H17.3833V19.35H18.5067V17.6267H19.7067C20.1067 17.6267 20.3567 17.6767 20.5183 17.8267C20.7217 18.0533 20.6967 18.4567 20.6967 18.74V19.33H21.825V18.4083C21.825 17.9917 21.7983 17.7833 21.6417 17.5483C21.4917 17.37 21.305 17.2317 21.0917 17.1533C21.3783 17.0367 21.8783 16.6533 21.8783 15.9033L21.8767 15.905ZM20.4517 16.565H20.4267C20.2767 16.655 20.1017 16.6583 19.8767 16.6583H18.5V15.62H19.875C20.075 15.62 20.275 15.6267 20.425 15.7033C20.575 15.77 20.675 15.9167 20.675 16.12C20.675 16.3233 20.5967 16.4867 20.4517 16.5633V16.565ZM26.5333 15.6217H27.5867V14.6217H26.5133C25.74 14.6217 25.1733 14.7967 24.8133 15.1717C24.3367 15.6717 24.21 16.3217 24.21 17.0217C24.21 17.875 24.415 18.41 24.81 18.8117C25.1967 19.2083 25.885 19.3283 26.4267 19.3283H27.7267L28.1517 18.2833H30.4683L30.905 19.3283H33.1717V15.8117L35.2917 19.3283H36.875L36.8783 19.3317V14.6433H35.7383V17.915L33.7717 14.6483H32.0717V19L30.1833 14.5733H28.51L26.9383 18.2733H26.4383C26.1433 18.2733 25.835 18.2233 25.6583 18.05C25.45 17.8 25.3483 17.45 25.3483 16.9467C25.3483 16.4717 25.4817 16.0967 25.6717 15.8967C25.8933 15.6717 26.125 15.6217 26.5317 15.6217H26.5333ZM29.3133 15.4417L30.0867 17.305V17.3083H28.5367L29.3133 15.4417ZM3.96667 18.2833L4.39 19.33H6.66667V15.655L8.28667 19.33H9.26L10.8817 15.66L10.9067 19.33H12.0567V14.6467H10.1967L8.85167 17.82L7.39167 14.645H5.57167V19.0833L3.675 14.645H2.01333L0.0166667 19.3283H1.21667L1.65 18.285H3.96667V18.2833ZM2.82 15.4417L3.58667 17.305L3.58167 17.3083H2.05667L2.81833 15.4417H2.82ZM19.76 22.7H16.19L14.7733 24.2383L13.3983 22.7017H8.91V27.4017H13.3333L14.7583 25.8483L16.1317 27.3983H18.3017V25.8317H19.6983C20.6983 25.8317 21.6483 25.5583 21.6483 24.2567L21.6383 24.2517C21.6383 22.9517 20.6417 22.7017 19.7583 22.7017L19.76 22.7ZM12.7833 26.4217L12.76 26.4183H10.0333V25.49H12.4833V24.5333H10.0333V23.6833H12.8333L14.055 25.05L12.7817 26.4233L12.7833 26.4217ZM17.1867 26.9717L15.47 25.06L17.1867 23.2133V26.9683V26.9717ZM19.775 24.875H18.3V23.68H19.775C20.175 23.68 20.475 23.8433 20.475 24.2533C20.475 24.6583 20.225 24.8733 19.775 24.8733V24.875ZM16.6117 15.6217V14.645H12.8833V19.3333H16.6117V18.3667H14V17.4267H16.545V16.4667H14V15.6217" fill="#333333"/>
</svg>
