<svg width="64" height="64" viewBox="0 0 64 64" fill="none" xmlns="http://www.w3.org/2000/svg">
<path d="M15 12H49.6667C51.7884 12 53.8232 12.8429 55.3235 14.3431C56.8238 15.8434 57.6667 17.8783 57.6667 20V44C57.6667 46.1217 56.8238 48.1566 55.3235 49.6569C53.8232 51.1571 51.7884 52 49.6667 52H15C12.8783 52 10.8434 51.1571 9.34315 49.6569C7.84286 48.1566 7 46.1217 7 44V20C7 17.8783 7.84286 15.8434 9.34315 14.3431C10.8434 12.8429 12.8783 12 15 12V12ZM15 14.6667C13.5855 14.6667 12.229 15.2286 11.2288 16.2288C10.2286 17.229 9.66667 18.5855 9.66667 20V22.6667H55V20C55 18.5855 54.4381 17.229 53.4379 16.2288C52.4377 15.2286 51.0812 14.6667 49.6667 14.6667H15ZM9.66667 44C9.66667 45.4145 10.2286 46.771 11.2288 47.7712C12.229 48.7714 13.5855 49.3333 15 49.3333H49.6667C51.0812 49.3333 52.4377 48.7714 53.4379 47.7712C54.4381 46.771 55 45.4145 55 44V30.6667H9.66667V44ZM15 41.3333H25.6667V44H15V41.3333ZM31 41.3333H39V44H31V41.3333ZM9.66667 25.3333V28H55V25.3333H9.66667Z" fill="#333333"/>
</svg>
