<svg width="64" height="50" viewBox="0 0 64 50" fill="none" xmlns="http://www.w3.org/2000/svg">
<path fill-rule="evenodd" clip-rule="evenodd" d="M32 22.7273H35.776C39.68 22.7273 41.7874 27.2818 39.2457 30.2318L35.5474 34.5205C35.9473 37.0643 37.2972 39.3646 39.3277 40.9624C41.3583 42.5601 43.92 43.3377 46.5018 43.1401C49.0836 42.9424 51.4955 41.784 53.256 39.896C55.0166 38.008 55.9965 35.5293 56 32.9546C56 32.0504 56.3612 31.1833 57.0042 30.544C57.6472 29.9046 58.5192 29.5455 59.4285 29.5455C60.3379 29.5455 61.2099 29.9046 61.8529 30.544C62.4959 31.1833 62.8571 32.0504 62.8571 32.9546C62.8571 36.5321 61.725 40.019 59.6213 42.9212C57.5175 45.8235 54.5486 47.994 51.1353 49.1253C47.722 50.2566 44.0371 50.2914 40.6028 49.2247C37.1685 48.158 34.1588 46.0439 32 43.1818C29.8412 46.0439 26.8314 48.158 23.3971 49.2247C19.9628 50.2914 16.278 50.2566 12.8646 49.1253C9.45128 47.994 6.48245 45.8235 4.37867 42.9212C2.27489 40.019 1.14282 36.5321 1.14282 32.9546C1.14282 32.0504 1.50405 31.1833 2.14703 30.544C2.79001 29.9046 3.66208 29.5455 4.57139 29.5455C5.48071 29.5455 6.35278 29.9046 6.99576 30.544C7.63874 31.1833 7.99997 32.0504 7.99997 32.9546C7.99598 35.5338 8.97224 38.0193 10.7332 39.9131C12.4941 41.807 14.9097 42.9693 17.496 43.1674C20.0823 43.3654 22.6484 42.5844 24.6801 40.981C26.7119 39.3775 28.0594 37.0699 28.4525 34.5205L24.7543 30.2318C22.2125 27.2818 24.32 22.7273 28.2285 22.7273H32Z" fill="#333333"/>
<path d="M48 13.6364C51.7871 13.6364 54.8571 10.5838 54.8571 6.81818C54.8571 3.0526 51.7871 0 48 0C44.2129 0 41.1428 3.0526 41.1428 6.81818C41.1428 10.5838 44.2129 13.6364 48 13.6364Z" fill="#333333"/>
<path d="M16 13.6364C19.7871 13.6364 22.8571 10.5838 22.8571 6.81818C22.8571 3.0526 19.7871 0 16 0C12.2129 0 9.14282 3.0526 9.14282 6.81818C9.14282 10.5838 12.2129 13.6364 16 13.6364Z" fill="#333333"/>
</svg>
