<svg width="64" height="64" viewBox="0 0 64 64" fill="none" xmlns="http://www.w3.org/2000/svg">
<path d="M15.375 37C16.9599 36.9997 18.4962 37.5304 19.724 38.5023C20.9518 39.4741 21.7955 40.8275 22.1125 42.3333H41.5V15.6667H11.25C9.79131 15.6667 8.39236 16.2286 7.36091 17.2288C6.32946 18.229 5.75 19.5855 5.75 21V42.3333H8.6375C8.95448 40.8275 9.79825 39.4741 11.026 38.5023C12.2538 37.5304 13.7901 36.9997 15.375 37ZM15.375 50.3333C13.7901 50.3336 12.2538 49.803 11.026 48.8311C9.79825 47.8592 8.95448 46.5058 8.6375 45H3V21C3 18.8783 3.86919 16.8434 5.41637 15.3431C6.96354 13.8429 9.06196 13 11.25 13H41.5C42.2293 13 42.9288 13.281 43.4445 13.781C43.9603 14.2811 44.25 14.9594 44.25 15.6667V21H52.5L60.75 31.616V45H55.1125C54.7969 46.5071 53.9537 47.862 52.7259 48.8352C51.498 49.8084 49.9609 50.34 48.375 50.34C46.7891 50.34 45.252 49.8084 44.0241 48.8352C42.7963 47.862 41.9531 46.5071 41.6375 45H22.1125C21.7955 46.5058 20.9518 47.8592 19.724 48.8311C18.4962 49.803 16.9599 50.3336 15.375 50.3333V50.3333ZM15.375 39.6667C14.281 39.6667 13.2318 40.0881 12.4582 40.8382C11.6846 41.5884 11.25 42.6058 11.25 43.6667C11.25 44.7275 11.6846 45.7449 12.4582 46.4951C13.2318 47.2452 14.281 47.6667 15.375 47.6667C16.469 47.6667 17.5182 47.2452 18.2918 46.4951C19.0654 45.7449 19.5 44.7275 19.5 43.6667C19.5 42.6058 19.0654 41.5884 18.2918 40.8382C17.5182 40.0881 16.469 39.6667 15.375 39.6667ZM48.375 37C49.9599 36.9997 51.4962 37.5304 52.724 38.5023C53.9518 39.4741 54.7955 40.8275 55.1125 42.3333H58V32.5093L57.3455 31.6667H44.25V38.3333C45.4391 37.4661 46.8871 36.9981 48.375 37V37ZM48.375 39.6667C47.281 39.6667 46.2318 40.0881 45.4582 40.8382C44.6846 41.5884 44.25 42.6058 44.25 43.6667C44.25 44.7275 44.6846 45.7449 45.4582 46.4951C46.2318 47.2452 47.281 47.6667 48.375 47.6667C49.469 47.6667 50.5182 47.2452 51.2918 46.4951C52.0654 45.7449 52.5 44.7275 52.5 43.6667C52.5 42.6058 52.0654 41.5884 51.2918 40.8382C50.5182 40.0881 49.469 39.6667 48.375 39.6667ZM44.25 23.6667V29H55.2748L51.125 23.6667H44.25Z" fill="#333333"/>
</svg>
