<svg width="224" height="72" viewBox="0 0 224 72" fill="none" xmlns="http://www.w3.org/2000/svg">
<path d="M85.0781 5.44531C86.1797 5.44531 87.2578 5.59766 88.3125 5.90234C89.3672 6.20703 90.3164 6.67578 91.1602 7.30859C92.0273 7.94141 92.707 8.73828 93.1992 9.69922C93.7148 10.6367 93.9727 11.7617 93.9727 13.0742C93.9727 14.457 93.6211 15.6523 92.918 16.6602C92.2383 17.6445 91.3359 18.418 90.2109 18.9805C89.0859 19.5195 87.8672 19.8359 86.5547 19.9297L95.0273 29H88.5938L80.4023 19.3672V29H75.5156V5.44531H85.0781ZM80.4023 10.0156V15.957C80.9648 16.1445 81.5859 16.2969 82.2656 16.4141C82.9688 16.5078 83.6719 16.5547 84.375 16.5547C85.7812 16.5547 86.8945 16.2734 87.7148 15.7109C88.5586 15.125 88.9805 14.3047 88.9805 13.25C88.9805 12.1016 88.5352 11.2812 87.6445 10.7891C86.7773 10.2734 85.7109 10.0156 84.4453 10.0156H80.4023ZM105.469 10.7891C107.203 10.7891 108.691 11.1641 109.934 11.9141C111.199 12.6641 112.16 13.707 112.816 15.043C113.496 16.3555 113.836 17.8789 113.836 19.6133V21.5117H100.969C101.203 22.707 101.789 23.668 102.727 24.3945C103.664 25.1211 104.812 25.4844 106.172 25.4844C107.461 25.4844 108.633 25.2266 109.688 24.7109C110.742 24.1953 111.586 23.668 112.219 23.1289L112.184 27.2773C111.621 27.7695 110.777 28.2734 109.652 28.7891C108.551 29.2812 107.332 29.5273 105.996 29.5273C104.238 29.5273 102.633 29.1289 101.18 28.332C99.75 27.5352 98.6016 26.4453 97.7344 25.0625C96.8906 23.6797 96.4688 22.0977 96.4688 20.3164C96.4688 18.582 96.8555 17 97.6289 15.5703C98.4023 14.1406 99.4688 12.9922 100.828 12.125C102.188 11.2344 103.734 10.7891 105.469 10.7891ZM105.363 14.6914C104.262 14.6914 103.336 15.0312 102.586 15.7109C101.836 16.3906 101.32 17.3047 101.039 18.4531H109.547C109.453 17.1875 108.984 16.25 108.141 15.6406C107.297 15.0078 106.371 14.6914 105.363 14.6914ZM124.945 10.7891C125.906 10.7891 126.879 11.0117 127.863 11.457C128.848 11.9023 129.668 12.5 130.324 13.25V11.2461H134.789V29H130.324V26.0117C129.809 26.9727 129.059 27.8047 128.074 28.5078C127.09 29.1875 125.941 29.5273 124.629 29.5273C123.199 29.5273 121.875 29.1641 120.656 28.4375C119.461 27.7109 118.5 26.6562 117.773 25.2734C117.047 23.8906 116.684 22.2148 116.684 20.2461C116.684 18.2773 117.047 16.5898 117.773 15.1836C118.523 13.7773 119.52 12.6992 120.762 11.9492C122.027 11.1758 123.422 10.7891 124.945 10.7891ZM125.859 15.1484C124.922 15.1484 124.113 15.3945 123.434 15.8867C122.777 16.3555 122.262 16.9766 121.887 17.75C121.512 18.5234 121.324 19.3555 121.324 20.2461C121.324 21.582 121.723 22.7188 122.52 23.6562C123.34 24.5938 124.418 25.0625 125.754 25.0625C126.551 25.0625 127.289 24.8516 127.969 24.4297C128.672 24.0078 129.234 23.4219 129.656 22.6719C130.102 21.8984 130.324 20.9727 130.324 19.8945V17.3633C129.691 16.6836 129 16.1445 128.25 15.7461C127.523 15.3477 126.727 15.1484 125.859 15.1484ZM148.359 10.7891C149.672 10.7891 150.75 11 151.594 11.4219C152.438 11.8438 153.105 12.2539 153.598 12.6523V16.7656C152.988 16.3203 152.297 15.9453 151.523 15.6406C150.773 15.3359 149.848 15.1836 148.746 15.1836C147.855 15.1836 147.023 15.4062 146.25 15.8516C145.5 16.2969 144.902 16.8945 144.457 17.6445C144.012 18.3945 143.789 19.25 143.789 20.2109C143.789 21.6641 144.258 22.8594 145.195 23.7969C146.133 24.7344 147.316 25.2031 148.746 25.2031C149.848 25.2031 150.773 25.0625 151.523 24.7812C152.297 24.4766 152.988 24.1016 153.598 23.6562V27.7344C153.105 28.1562 152.438 28.5664 151.594 28.9648C150.75 29.3398 149.672 29.5273 148.359 29.5273C146.555 29.5273 144.949 29.1055 143.543 28.2617C142.16 27.3945 141.059 26.2578 140.238 24.8516C139.441 23.4219 139.043 21.875 139.043 20.2109C139.043 18.9688 139.266 17.7852 139.711 16.6602C140.18 15.5352 140.836 14.5391 141.68 13.6719C142.523 12.7812 143.508 12.0781 144.633 11.5625C145.781 11.0469 147.023 10.7891 148.359 10.7891ZM164.004 6.07812V11.2461H168.926V14.9727H164.004V22.6367C164.004 23.4336 164.18 24.0664 164.531 24.5352C164.906 24.9805 165.457 25.2031 166.184 25.2031C166.816 25.2031 167.355 25.1328 167.801 24.9922C168.27 24.8516 168.703 24.6523 169.102 24.3945V27.9453C168.656 28.3906 168.094 28.7656 167.414 29.0703C166.758 29.375 165.926 29.5273 164.918 29.5273C163.324 29.5273 162.023 29.0234 161.016 28.0156C160.031 26.9844 159.539 25.5781 159.539 23.7969V14.9727H156.34V12.6875C157.465 12.2891 158.496 11.5391 159.434 10.4375C160.395 9.33594 161.156 7.88281 161.719 6.07812H164.004ZM95.625 39.4453C96.7266 39.4453 97.8047 39.6328 98.8594 40.0078C99.9141 40.3828 100.863 40.9336 101.707 41.6602C102.574 42.3867 103.254 43.2656 103.746 44.2969C104.262 45.3047 104.52 46.4648 104.52 47.7773C104.52 49.3711 104.109 50.7891 103.289 52.0312C102.492 53.25 101.426 54.2109 100.09 54.9141C98.7539 55.6172 97.3008 55.9688 95.7305 55.9688C94.6758 55.9688 93.7266 55.8633 92.8828 55.6523C92.0391 55.4414 91.3359 55.1953 90.7734 54.9141V63H85.8867V39.4453H95.625ZM90.7734 44.0156V50.9766C91.2891 51.1875 91.9102 51.375 92.6367 51.5391C93.3867 51.6797 94.1484 51.75 94.9219 51.75C96.3281 51.75 97.4414 51.3633 98.2617 50.5898C99.1055 49.793 99.5273 48.8555 99.5273 47.7773C99.5273 46.5352 99.0586 45.5977 98.1211 44.9648C97.1836 44.332 96.082 44.0156 94.8164 44.0156H90.7734ZM116.438 44.7891C118.172 44.7891 119.66 45.1641 120.902 45.9141C122.168 46.6641 123.129 47.707 123.785 49.043C124.465 50.3555 124.805 51.8789 124.805 53.6133V55.5117H111.938C112.172 56.707 112.758 57.668 113.695 58.3945C114.633 59.1211 115.781 59.4844 117.141 59.4844C118.43 59.4844 119.602 59.2266 120.656 58.7109C121.711 58.1953 122.555 57.668 123.188 57.1289L123.152 61.2773C122.59 61.7695 121.746 62.2734 120.621 62.7891C119.52 63.2812 118.301 63.5273 116.965 63.5273C115.207 63.5273 113.602 63.1289 112.148 62.332C110.719 61.5352 109.57 60.4453 108.703 59.0625C107.859 57.6797 107.438 56.0977 107.438 54.3164C107.438 52.582 107.824 51 108.598 49.5703C109.371 48.1406 110.438 46.9922 111.797 46.125C113.156 45.2344 114.703 44.7891 116.438 44.7891ZM116.332 48.6914C115.23 48.6914 114.305 49.0312 113.555 49.7109C112.805 50.3906 112.289 51.3047 112.008 52.4531H120.516C120.422 51.1875 119.953 50.25 119.109 49.6406C118.266 49.0078 117.34 48.6914 116.332 48.6914ZM135.316 40.0781V45.2461H140.238V48.9727H135.316V56.6367C135.316 57.4336 135.492 58.0664 135.844 58.5352C136.219 58.9805 136.77 59.2031 137.496 59.2031C138.129 59.2031 138.668 59.1328 139.113 58.9922C139.582 58.8516 140.016 58.6523 140.414 58.3945V61.9453C139.969 62.3906 139.406 62.7656 138.727 63.0703C138.07 63.375 137.238 63.5273 136.23 63.5273C134.637 63.5273 133.336 63.0234 132.328 62.0156C131.344 60.9844 130.852 59.5781 130.852 57.7969V48.9727H127.652V46.6875C128.777 46.2891 129.809 45.5391 130.746 44.4375C131.707 43.3359 132.469 41.8828 133.031 40.0781H135.316ZM150.715 44.7891C151.816 44.7891 152.836 44.9531 153.773 45.2812C154.711 45.6094 155.438 45.9844 155.953 46.4062V50.3438C155.391 49.9688 154.699 49.6055 153.879 49.2539C153.082 48.9023 152.25 48.7266 151.383 48.7266C150.539 48.7266 149.871 48.9141 149.379 49.2891C148.887 49.6641 148.641 50.1094 148.641 50.625C148.641 51 148.781 51.3516 149.062 51.6797C149.344 51.9844 149.883 52.2539 150.68 52.4883L152.684 53.1562C155.379 53.9531 156.727 55.5117 156.727 57.832C156.727 58.9336 156.41 59.918 155.777 60.7852C155.168 61.6289 154.336 62.2969 153.281 62.7891C152.25 63.2812 151.102 63.5273 149.836 63.5273C148.641 63.5273 147.48 63.3398 146.355 62.9648C145.23 62.5898 144.375 62.1797 143.789 61.7344V57.832C144.234 58.1367 144.773 58.4297 145.406 58.7109C146.039 58.9922 146.695 59.2266 147.375 59.4141C148.055 59.5781 148.676 59.6602 149.238 59.6602C150.129 59.6602 150.809 59.5078 151.277 59.2031C151.77 58.875 152.016 58.418 152.016 57.832C152.016 57.3867 151.816 57.0352 151.418 56.7773C151.02 56.5195 150.434 56.2617 149.66 56.0039L147.48 55.2305C146.121 54.7852 145.184 54.1523 144.668 53.332C144.152 52.5117 143.895 51.5391 143.895 50.4141C143.895 49.2891 144.176 48.3164 144.738 47.4961C145.324 46.6523 146.133 45.9961 147.164 45.5273C148.195 45.0352 149.379 44.7891 150.715 44.7891ZM170.367 44.7891C172.172 44.7891 173.684 45.3984 174.902 46.6172C176.121 47.8359 176.73 49.6641 176.73 52.1016V63H172.266L172.23 52.6992C172.23 51.5039 171.938 50.6133 171.352 50.0273C170.789 49.4414 170.004 49.1484 168.996 49.1484C168.199 49.1484 167.449 49.4062 166.746 49.9219C166.066 50.4375 165.48 51.0469 164.988 51.75V63H160.523V37.6875H164.988V47.7773C165.527 47.0508 166.254 46.3711 167.168 45.7383C168.105 45.1055 169.172 44.7891 170.367 44.7891ZM190.125 44.7891C191.859 44.7891 193.441 45.2109 194.871 46.0547C196.301 46.875 197.449 48 198.316 49.4297C199.207 50.8359 199.652 52.418 199.652 54.1758C199.652 55.9336 199.207 57.5156 198.316 58.9219C197.449 60.3281 196.301 61.4531 194.871 62.2969C193.441 63.1172 191.859 63.5273 190.125 63.5273C188.414 63.5273 186.832 63.1172 185.379 62.2969C183.949 61.4531 182.801 60.3281 181.934 58.9219C181.066 57.5156 180.633 55.9336 180.633 54.1758C180.633 52.418 181.066 50.8359 181.934 49.4297C182.801 48 183.949 46.875 185.379 46.0547C186.832 45.2109 188.414 44.7891 190.125 44.7891ZM190.125 49.1133C189.281 49.1133 188.496 49.3125 187.77 49.7109C187.043 50.1094 186.457 50.6836 186.012 51.4336C185.59 52.1836 185.379 53.0977 185.379 54.1758C185.379 55.2539 185.59 56.168 186.012 56.918C186.457 57.668 187.043 58.2422 187.77 58.6406C188.496 59.0156 189.281 59.2031 190.125 59.2031C190.969 59.2031 191.754 59.0156 192.48 58.6406C193.207 58.2422 193.793 57.668 194.238 56.918C194.684 56.168 194.906 55.2539 194.906 54.1758C194.906 53.0977 194.684 52.1836 194.238 51.4336C193.793 50.6836 193.207 50.1094 192.48 49.7109C191.754 49.3125 190.969 49.1133 190.125 49.1133ZM214.031 44.7891C215.438 44.7891 216.738 45.1523 217.934 45.8789C219.152 46.582 220.125 47.625 220.852 49.0078C221.602 50.3672 221.977 52.0312 221.977 54C221.977 55.9688 221.602 57.668 220.852 59.0977C220.125 60.5273 219.129 61.6289 217.863 62.4023C216.621 63.1523 215.238 63.5273 213.715 63.5273C212.73 63.5273 211.746 63.293 210.762 62.8242C209.801 62.332 208.992 61.7227 208.336 60.9961V71.4375H203.871V45.2461H208.336V48.2344C208.852 47.2734 209.602 46.4648 210.586 45.8086C211.57 45.1289 212.719 44.7891 214.031 44.7891ZM212.906 49.2539C212.109 49.2539 211.359 49.4648 210.656 49.8867C209.953 50.2852 209.379 50.8594 208.934 51.6094C208.512 52.3594 208.312 53.2617 208.336 54.3164V56.8828C208.969 57.5391 209.648 58.0898 210.375 58.5352C211.125 58.957 211.934 59.168 212.801 59.168C213.715 59.168 214.512 58.9219 215.191 58.4297C215.871 57.9375 216.398 57.3047 216.773 56.5312C217.148 55.7344 217.336 54.8906 217.336 54C217.336 52.6641 216.926 51.5391 216.105 50.625C215.309 49.7109 214.242 49.2539 212.906 49.2539Z" fill="#333333"/>
<path fill-rule="evenodd" clip-rule="evenodd" d="M32 31.7273H35.776C39.68 31.7273 41.7874 36.2818 39.2457 39.2318L35.5474 43.5204C35.9473 46.0643 37.2972 48.3646 39.3278 49.9623C41.3583 51.5601 43.9201 52.3377 46.5019 52.14C49.0836 51.9424 51.4955 50.7839 53.2561 48.8959C55.0167 47.0079 55.9965 44.5292 56 41.9545C56 41.0504 56.3612 40.1833 57.0042 39.5439C57.6472 38.9046 58.5193 38.5454 59.4286 38.5454C60.3379 38.5454 61.21 38.9046 61.8529 39.5439C62.4959 40.1833 62.8571 41.0504 62.8571 41.9545C62.8571 45.5321 61.7251 49.0189 59.6213 51.9212C57.5175 54.8234 54.5487 56.994 51.1353 58.1253C47.722 59.2566 44.0372 59.2914 40.6028 58.2246C37.1685 57.1579 34.1588 55.0438 32 52.1818C29.8412 55.0438 26.8315 57.1579 23.3972 58.2246C19.9628 59.2914 16.278 59.2566 12.8647 58.1253C9.45131 56.994 6.48248 54.8234 4.3787 51.9212C2.27492 49.0189 1.14285 45.5321 1.14285 41.9545C1.14285 41.0504 1.50408 40.1833 2.14706 39.5439C2.79004 38.9046 3.66211 38.5454 4.57142 38.5454C5.48074 38.5454 6.35281 38.9046 6.99579 39.5439C7.63877 40.1833 8 41.0504 8 41.9545C7.99601 44.5338 8.97227 47.0192 10.7332 48.9131C12.4941 50.807 14.9097 51.9693 17.496 52.1673C20.0823 52.3653 22.6484 51.5844 24.6802 49.9809C26.7119 48.3775 28.0594 46.0699 28.4526 43.5204L24.7543 39.2318C22.2126 36.2818 24.32 31.7273 28.2286 31.7273H32Z" fill="#333333"/>
<path d="M48 22.6364C51.7871 22.6364 54.8571 19.5838 54.8571 15.8182C54.8571 12.0526 51.7871 9 48 9C44.2129 9 41.1429 12.0526 41.1429 15.8182C41.1429 19.5838 44.2129 22.6364 48 22.6364Z" fill="#333333"/>
<path d="M16 22.6364C19.7871 22.6364 22.8571 19.5838 22.8571 15.8182C22.8571 12.0526 19.7871 9 16 9C12.2129 9 9.14285 12.0526 9.14285 15.8182C9.14285 19.5838 12.2129 22.6364 16 22.6364Z" fill="#333333"/>
</svg>
