<svg width="242" height="72" viewBox="0 0 242 72" fill="none" xmlns="http://www.w3.org/2000/svg">
<path d="M92.0781 5.44531C93.1797 5.44531 94.2578 5.59766 95.3125 5.90234C96.3672 6.20703 97.3164 6.67578 98.1602 7.30859C99.0273 7.94141 99.707 8.73828 100.199 9.69922C100.715 10.6367 100.973 11.7617 100.973 13.0742C100.973 14.457 100.621 15.6523 99.918 16.6602C99.2383 17.6445 98.3359 18.418 97.2109 18.9805C96.0859 19.5195 94.8672 19.8359 93.5547 19.9297L102.027 29H95.5938L87.4023 19.3672V29H82.5156V5.44531H92.0781ZM87.4023 10.0156V15.957C87.9648 16.1445 88.5859 16.2969 89.2656 16.4141C89.9688 16.5078 90.6719 16.5547 91.375 16.5547C92.7812 16.5547 93.8945 16.2734 94.7148 15.7109C95.5586 15.125 95.9805 14.3047 95.9805 13.25C95.9805 12.1016 95.5352 11.2812 94.6445 10.7891C93.7773 10.2734 92.7109 10.0156 91.4453 10.0156H87.4023ZM112.469 10.7891C114.203 10.7891 115.691 11.1641 116.934 11.9141C118.199 12.6641 119.16 13.707 119.816 15.043C120.496 16.3555 120.836 17.8789 120.836 19.6133V21.5117H107.969C108.203 22.707 108.789 23.668 109.727 24.3945C110.664 25.1211 111.812 25.4844 113.172 25.4844C114.461 25.4844 115.633 25.2266 116.688 24.7109C117.742 24.1953 118.586 23.668 119.219 23.1289L119.184 27.2773C118.621 27.7695 117.777 28.2734 116.652 28.7891C115.551 29.2812 114.332 29.5273 112.996 29.5273C111.238 29.5273 109.633 29.1289 108.18 28.332C106.75 27.5352 105.602 26.4453 104.734 25.0625C103.891 23.6797 103.469 22.0977 103.469 20.3164C103.469 18.582 103.855 17 104.629 15.5703C105.402 14.1406 106.469 12.9922 107.828 12.125C109.188 11.2344 110.734 10.7891 112.469 10.7891ZM112.363 14.6914C111.262 14.6914 110.336 15.0312 109.586 15.7109C108.836 16.3906 108.32 17.3047 108.039 18.4531H116.547C116.453 17.1875 115.984 16.25 115.141 15.6406C114.297 15.0078 113.371 14.6914 112.363 14.6914ZM131.945 10.7891C132.906 10.7891 133.879 11.0117 134.863 11.457C135.848 11.9023 136.668 12.5 137.324 13.25V11.2461H141.789V29H137.324V26.0117C136.809 26.9727 136.059 27.8047 135.074 28.5078C134.09 29.1875 132.941 29.5273 131.629 29.5273C130.199 29.5273 128.875 29.1641 127.656 28.4375C126.461 27.7109 125.5 26.6562 124.773 25.2734C124.047 23.8906 123.684 22.2148 123.684 20.2461C123.684 18.2773 124.047 16.5898 124.773 15.1836C125.523 13.7773 126.52 12.6992 127.762 11.9492C129.027 11.1758 130.422 10.7891 131.945 10.7891ZM132.859 15.1484C131.922 15.1484 131.113 15.3945 130.434 15.8867C129.777 16.3555 129.262 16.9766 128.887 17.75C128.512 18.5234 128.324 19.3555 128.324 20.2461C128.324 21.582 128.723 22.7188 129.52 23.6562C130.34 24.5938 131.418 25.0625 132.754 25.0625C133.551 25.0625 134.289 24.8516 134.969 24.4297C135.672 24.0078 136.234 23.4219 136.656 22.6719C137.102 21.8984 137.324 20.9727 137.324 19.8945V17.3633C136.691 16.6836 136 16.1445 135.25 15.7461C134.523 15.3477 133.727 15.1484 132.859 15.1484ZM155.359 10.7891C156.672 10.7891 157.75 11 158.594 11.4219C159.438 11.8438 160.105 12.2539 160.598 12.6523V16.7656C159.988 16.3203 159.297 15.9453 158.523 15.6406C157.773 15.3359 156.848 15.1836 155.746 15.1836C154.855 15.1836 154.023 15.4062 153.25 15.8516C152.5 16.2969 151.902 16.8945 151.457 17.6445C151.012 18.3945 150.789 19.25 150.789 20.2109C150.789 21.6641 151.258 22.8594 152.195 23.7969C153.133 24.7344 154.316 25.2031 155.746 25.2031C156.848 25.2031 157.773 25.0625 158.523 24.7812C159.297 24.4766 159.988 24.1016 160.598 23.6562V27.7344C160.105 28.1562 159.438 28.5664 158.594 28.9648C157.75 29.3398 156.672 29.5273 155.359 29.5273C153.555 29.5273 151.949 29.1055 150.543 28.2617C149.16 27.3945 148.059 26.2578 147.238 24.8516C146.441 23.4219 146.043 21.875 146.043 20.2109C146.043 18.9688 146.266 17.7852 146.711 16.6602C147.18 15.5352 147.836 14.5391 148.68 13.6719C149.523 12.7812 150.508 12.0781 151.633 11.5625C152.781 11.0469 154.023 10.7891 155.359 10.7891ZM171.004 6.07812V11.2461H175.926V14.9727H171.004V22.6367C171.004 23.4336 171.18 24.0664 171.531 24.5352C171.906 24.9805 172.457 25.2031 173.184 25.2031C173.816 25.2031 174.355 25.1328 174.801 24.9922C175.27 24.8516 175.703 24.6523 176.102 24.3945V27.9453C175.656 28.3906 175.094 28.7656 174.414 29.0703C173.758 29.375 172.926 29.5273 171.918 29.5273C170.324 29.5273 169.023 29.0234 168.016 28.0156C167.031 26.9844 166.539 25.5781 166.539 23.7969V14.9727H163.34V12.6875C164.465 12.2891 165.496 11.5391 166.434 10.4375C167.395 9.33594 168.156 7.88281 168.719 6.07812H171.004ZM113.172 39.4453C114.273 39.4453 115.352 39.6328 116.406 40.0078C117.461 40.3828 118.41 40.9336 119.254 41.6602C120.121 42.3867 120.801 43.2656 121.293 44.2969C121.809 45.3047 122.066 46.4648 122.066 47.7773C122.066 49.3711 121.656 50.7891 120.836 52.0312C120.039 53.25 118.973 54.2109 117.637 54.9141C116.301 55.6172 114.848 55.9688 113.277 55.9688C112.223 55.9688 111.273 55.8633 110.43 55.6523C109.586 55.4414 108.883 55.1953 108.32 54.9141V63H103.434V39.4453H113.172ZM108.32 44.0156V50.9766C108.836 51.1875 109.457 51.375 110.184 51.5391C110.934 51.6797 111.695 51.75 112.469 51.75C113.875 51.75 114.988 51.3633 115.809 50.5898C116.652 49.793 117.074 48.8555 117.074 47.7773C117.074 46.5352 116.605 45.5977 115.668 44.9648C114.73 44.332 113.629 44.0156 112.363 44.0156H108.32ZM133.984 44.7891C135.719 44.7891 137.207 45.1641 138.449 45.9141C139.715 46.6641 140.676 47.707 141.332 49.043C142.012 50.3555 142.352 51.8789 142.352 53.6133V55.5117H129.484C129.719 56.707 130.305 57.668 131.242 58.3945C132.18 59.1211 133.328 59.4844 134.688 59.4844C135.977 59.4844 137.148 59.2266 138.203 58.7109C139.258 58.1953 140.102 57.668 140.734 57.1289L140.699 61.2773C140.137 61.7695 139.293 62.2734 138.168 62.7891C137.066 63.2812 135.848 63.5273 134.512 63.5273C132.754 63.5273 131.148 63.1289 129.695 62.332C128.266 61.5352 127.117 60.4453 126.25 59.0625C125.406 57.6797 124.984 56.0977 124.984 54.3164C124.984 52.582 125.371 51 126.145 49.5703C126.918 48.1406 127.984 46.9922 129.344 46.125C130.703 45.2344 132.25 44.7891 133.984 44.7891ZM133.879 48.6914C132.777 48.6914 131.852 49.0312 131.102 49.7109C130.352 50.3906 129.836 51.3047 129.555 52.4531H138.062C137.969 51.1875 137.5 50.25 136.656 49.6406C135.812 49.0078 134.887 48.6914 133.879 48.6914ZM152.863 40.0781V45.2461H157.785V48.9727H152.863V56.6367C152.863 57.4336 153.039 58.0664 153.391 58.5352C153.766 58.9805 154.316 59.2031 155.043 59.2031C155.676 59.2031 156.215 59.1328 156.66 58.9922C157.129 58.8516 157.562 58.6523 157.961 58.3945V61.9453C157.516 62.3906 156.953 62.7656 156.273 63.0703C155.617 63.375 154.785 63.5273 153.777 63.5273C152.184 63.5273 150.883 63.0234 149.875 62.0156C148.891 60.9844 148.398 59.5781 148.398 57.7969V48.9727H145.199V46.6875C146.324 46.2891 147.355 45.5391 148.293 44.4375C149.254 43.3359 150.016 41.8828 150.578 40.0781H152.863ZM168.262 44.7891C169.363 44.7891 170.383 44.9531 171.32 45.2812C172.258 45.6094 172.984 45.9844 173.5 46.4062V50.3438C172.938 49.9688 172.246 49.6055 171.426 49.2539C170.629 48.9023 169.797 48.7266 168.93 48.7266C168.086 48.7266 167.418 48.9141 166.926 49.2891C166.434 49.6641 166.188 50.1094 166.188 50.625C166.188 51 166.328 51.3516 166.609 51.6797C166.891 51.9844 167.43 52.2539 168.227 52.4883L170.23 53.1562C172.926 53.9531 174.273 55.5117 174.273 57.832C174.273 58.9336 173.957 59.918 173.324 60.7852C172.715 61.6289 171.883 62.2969 170.828 62.7891C169.797 63.2812 168.648 63.5273 167.383 63.5273C166.188 63.5273 165.027 63.3398 163.902 62.9648C162.777 62.5898 161.922 62.1797 161.336 61.7344V57.832C161.781 58.1367 162.32 58.4297 162.953 58.7109C163.586 58.9922 164.242 59.2266 164.922 59.4141C165.602 59.5781 166.223 59.6602 166.785 59.6602C167.676 59.6602 168.355 59.5078 168.824 59.2031C169.316 58.875 169.562 58.418 169.562 57.832C169.562 57.3867 169.363 57.0352 168.965 56.7773C168.566 56.5195 167.98 56.2617 167.207 56.0039L165.027 55.2305C163.668 54.7852 162.73 54.1523 162.215 53.332C161.699 52.5117 161.441 51.5391 161.441 50.4141C161.441 49.2891 161.723 48.3164 162.285 47.4961C162.871 46.6523 163.68 45.9961 164.711 45.5273C165.742 45.0352 166.926 44.7891 168.262 44.7891ZM187.914 44.7891C189.719 44.7891 191.23 45.3984 192.449 46.6172C193.668 47.8359 194.277 49.6641 194.277 52.1016V63H189.812L189.777 52.6992C189.777 51.5039 189.484 50.6133 188.898 50.0273C188.336 49.4414 187.551 49.1484 186.543 49.1484C185.746 49.1484 184.996 49.4062 184.293 49.9219C183.613 50.4375 183.027 51.0469 182.535 51.75V63H178.07V37.6875H182.535V47.7773C183.074 47.0508 183.801 46.3711 184.715 45.7383C185.652 45.1055 186.719 44.7891 187.914 44.7891ZM207.672 44.7891C209.406 44.7891 210.988 45.2109 212.418 46.0547C213.848 46.875 214.996 48 215.863 49.4297C216.754 50.8359 217.199 52.418 217.199 54.1758C217.199 55.9336 216.754 57.5156 215.863 58.9219C214.996 60.3281 213.848 61.4531 212.418 62.2969C210.988 63.1172 209.406 63.5273 207.672 63.5273C205.961 63.5273 204.379 63.1172 202.926 62.2969C201.496 61.4531 200.348 60.3281 199.48 58.9219C198.613 57.5156 198.18 55.9336 198.18 54.1758C198.18 52.418 198.613 50.8359 199.48 49.4297C200.348 48 201.496 46.875 202.926 46.0547C204.379 45.2109 205.961 44.7891 207.672 44.7891ZM207.672 49.1133C206.828 49.1133 206.043 49.3125 205.316 49.7109C204.59 50.1094 204.004 50.6836 203.559 51.4336C203.137 52.1836 202.926 53.0977 202.926 54.1758C202.926 55.2539 203.137 56.168 203.559 56.918C204.004 57.668 204.59 58.2422 205.316 58.6406C206.043 59.0156 206.828 59.2031 207.672 59.2031C208.516 59.2031 209.301 59.0156 210.027 58.6406C210.754 58.2422 211.34 57.668 211.785 56.918C212.23 56.168 212.453 55.2539 212.453 54.1758C212.453 53.0977 212.23 52.1836 211.785 51.4336C211.34 50.6836 210.754 50.1094 210.027 49.7109C209.301 49.3125 208.516 49.1133 207.672 49.1133ZM231.578 44.7891C232.984 44.7891 234.285 45.1523 235.48 45.8789C236.699 46.582 237.672 47.625 238.398 49.0078C239.148 50.3672 239.523 52.0312 239.523 54C239.523 55.9688 239.148 57.668 238.398 59.0977C237.672 60.5273 236.676 61.6289 235.41 62.4023C234.168 63.1523 232.785 63.5273 231.262 63.5273C230.277 63.5273 229.293 63.293 228.309 62.8242C227.348 62.332 226.539 61.7227 225.883 60.9961V71.4375H221.418V45.2461H225.883V48.2344C226.398 47.2734 227.148 46.4648 228.133 45.8086C229.117 45.1289 230.266 44.7891 231.578 44.7891ZM230.453 49.2539C229.656 49.2539 228.906 49.4648 228.203 49.8867C227.5 50.2852 226.926 50.8594 226.48 51.6094C226.059 52.3594 225.859 53.2617 225.883 54.3164V56.8828C226.516 57.5391 227.195 58.0898 227.922 58.5352C228.672 58.957 229.48 59.168 230.348 59.168C231.262 59.168 232.059 58.9219 232.738 58.4297C233.418 57.9375 233.945 57.3047 234.32 56.5312C234.695 55.7344 234.883 54.8906 234.883 54C234.883 52.6641 234.473 51.5391 233.652 50.625C232.855 49.7109 231.789 49.2539 230.453 49.2539Z" fill="#333333"/>
<path fill-rule="evenodd" clip-rule="evenodd" d="M32.0002 33.7273H35.7762C39.6802 33.7273 41.7876 38.2818 39.2459 41.2318L35.5476 45.5205C35.9475 48.0643 37.2974 50.3646 39.328 51.9624C41.3585 53.5601 43.9203 54.3377 46.5021 54.1401C49.0838 53.9424 51.4957 52.784 53.2563 50.896C55.0169 49.008 55.9967 46.5293 56.0002 43.9546C56.0002 43.0504 56.3614 42.1833 57.0044 41.544C57.6474 40.9046 58.5195 40.5455 59.4288 40.5455C60.3381 40.5455 61.2102 40.9046 61.8531 41.544C62.4961 42.1833 62.8574 43.0504 62.8574 43.9546C62.8574 47.5321 61.7253 51.019 59.6215 53.9212C57.5177 56.8235 54.5489 58.994 51.1355 60.1253C47.7222 61.2566 44.0374 61.2914 40.6031 60.2247C37.1687 59.158 34.159 57.0439 32.0002 54.1818C29.8414 57.0439 26.8317 59.158 23.3974 60.2247C19.963 61.2914 16.2782 61.2566 12.8649 60.1253C9.45153 58.994 6.48269 56.8235 4.37891 53.9212C2.27514 51.019 1.14307 47.5321 1.14307 43.9546C1.14307 43.0504 1.50429 42.1833 2.14727 41.544C2.79025 40.9046 3.66232 40.5455 4.57164 40.5455C5.48095 40.5455 6.35302 40.9046 6.996 41.544C7.63899 42.1833 8.00021 43.0504 8.00021 43.9546C7.99623 46.5338 8.97249 49.0193 10.7334 50.9131C12.4944 52.807 14.9099 53.9693 17.4962 54.1674C20.0826 54.3654 22.6486 53.5844 24.6804 51.981C26.7122 50.3775 28.0596 48.0699 28.4528 45.5205L24.7545 41.2318C22.2128 38.2818 24.3202 33.7273 28.2288 33.7273H32.0002Z" fill="#333333"/>
<path d="M48.0002 24.6364C51.7873 24.6364 54.8574 21.5838 54.8574 17.8182C54.8574 14.0526 51.7873 11 48.0002 11C44.2131 11 41.1431 14.0526 41.1431 17.8182C41.1431 21.5838 44.2131 24.6364 48.0002 24.6364Z" fill="#333333"/>
<path d="M16.0002 24.6364C19.7873 24.6364 22.8574 21.5838 22.8574 17.8182C22.8574 14.0526 19.7873 11 16.0002 11C12.2131 11 9.14307 14.0526 9.14307 17.8182C9.14307 21.5838 12.2131 24.6364 16.0002 24.6364Z" fill="#333333"/>
</svg>
