<svg width="40" height="40" viewBox="0 0 40 40" fill="none" xmlns="http://www.w3.org/2000/svg">
<path d="M18.905 30.0517C19.0017 30.1334 19.105 30.215 19.2067 30.295C17.245 31.6 14.89 32.3584 12.3617 32.3584C5.53333 32.36 0 26.8267 0 20C0 13.175 5.53333 7.64001 12.36 7.64001C14.89 7.64001 17.245 8.40001 19.2017 9.70335C19.1017 9.78835 19.0017 9.86668 18.9267 9.95335C16 12.4817 14.325 16.1467 14.325 20C14.325 23.8517 15.9933 27.5167 18.905 30.0517ZM27.64 7.64001C25.1067 7.64001 22.755 8.40001 20.7983 9.70335C20.8983 9.78835 20.9983 9.86668 21.0733 9.95335C24 12.4817 25.675 16.1467 25.675 20C25.675 23.85 24.0067 27.5117 21.095 30.0517C20.9983 30.1334 20.895 30.215 20.7933 30.295C22.755 31.6 25.1067 32.3584 27.6383 32.3584C34.4667 32.36 40 26.8267 40 20C40 13.1767 34.4667 7.64001 27.64 7.64001ZM20 10.29C19.84 10.415 19.685 10.54 19.5333 10.675C16.9267 12.94 15.2817 16.275 15.2817 20C15.2817 23.7267 16.9267 27.06 19.5333 29.325C19.6833 29.4583 19.8417 29.5884 20 29.7117C20.16 29.5884 20.315 29.4583 20.4667 29.325C23.0717 27.06 24.7183 23.7267 24.7183 20C24.7183 16.275 23.0733 12.94 20.4667 10.675C20.3167 10.5417 20.16 10.415 20 10.29Z" fill="#333333"/>
</svg>
