<svg width="64" height="64" viewBox="0 0 64 64" fill="none" xmlns="http://www.w3.org/2000/svg">
<path d="M42.384 7C43.1269 7 43.6104 7.78136 43.279 8.44619L35.4144 24.2205C35.0829 24.8853 35.5664 25.6667 36.3093 25.6667H42.384C43.1269 25.6667 43.6104 26.448 43.2789 27.1129L29.8949 53.9567C29.4238 54.9016 28 54.5664 28 53.5105V37.3333C28 36.781 27.5523 36.3333 27 36.3333H21C20.4477 36.3333 20 35.8856 20 35.3333V8C20 7.44772 20.4477 7 21 7H42.384ZM32 28.3333C31.2571 28.3333 30.7736 27.552 31.105 26.8871L38.9696 11.1129C39.3011 10.448 38.8176 9.66667 38.0747 9.66667H23.6667C23.1144 9.66667 22.6667 10.1144 22.6667 10.6667V32.6667C22.6667 33.219 23.1144 33.6667 23.6667 33.6667H29.6667C30.219 33.6667 30.6667 34.1144 30.6667 34.6667V42.1853C30.6667 43.2411 32.0905 43.5764 32.5616 42.6315L38.9696 29.7795C39.3011 29.1147 38.8176 28.3333 38.0747 28.3333H32Z" fill="#333333"/>
</svg>
