<svg width="64" height="64" viewBox="0 0 64 64" fill="none" xmlns="http://www.w3.org/2000/svg">
<path d="M53.6667 55.2069C55.872 55.2069 57.6667 53.5348 57.6667 51.48V42.784C57.6667 40.7293 55.872 39.0572 53.6667 39.0572C50.5467 39.0572 47.48 38.6 44.5467 37.6981C43.8455 37.4918 43.0974 37.4668 42.3821 37.6256C41.6668 37.7844 41.0113 38.1212 40.4853 38.6L38.6872 40.2754C37.4605 41.4183 35.6405 41.6918 34.201 40.8321C29.6071 38.0885 25.6819 34.4793 22.6775 30.2394C21.5993 28.7178 21.9165 26.6567 23.277 25.3812L24.76 23.9907C25.8587 23.0416 26.2533 21.5981 25.784 20.2092C24.818 17.4719 24.3282 14.6083 24.3333 11.7269C24.3333 9.67212 22.5387 8 20.3333 8H11C8.79467 8 7 9.67212 7 11.7269C7 35.703 27.9333 55.2069 53.6667 55.2069ZM11 10.4846H20.3333C20.687 10.4846 21.0261 10.6155 21.2761 10.8484C21.5262 11.0814 21.6667 11.3974 21.6667 11.7269C21.6667 14.8997 22.2 18.0153 23.248 20.9695C23.325 21.1838 23.334 21.4144 23.2739 21.6334C23.2139 21.8524 23.0873 22.0506 22.9093 22.2043L19.9514 24.9743C18.6217 26.2196 18.2846 28.218 19.2668 29.7523C23.0934 35.7299 28.2293 40.4578 34.7325 43.989C36.1736 44.7715 37.9423 44.4847 39.1418 43.3665L42.352 40.374C42.5293 40.2105 42.7511 40.095 42.9934 40.0398C43.2358 39.9847 43.4897 39.992 43.728 40.0609C46.9173 41.0448 50.2613 41.5418 53.6667 41.5418C54.4 41.5418 55 42.1008 55 42.784V51.48C55 52.1633 54.4 52.7223 53.6667 52.7223C29.4053 52.7223 9.66667 34.3315 9.66667 11.7269C9.66667 11.3974 9.80714 11.0814 10.0572 10.8484C10.3072 10.6155 10.6464 10.4846 11 10.4846Z" fill="#333333"/>
</svg>
