<svg width="48" height="48" viewBox="0 0 48 48" fill="none" xmlns="http://www.w3.org/2000/svg">
<path d="M24 4C22.0222 4 20.0888 4.58649 18.4443 5.6853C16.7998 6.78412 15.5181 8.3459 14.7612 10.1732C14.0043 12.0004 13.8063 14.0111 14.1921 15.9509C14.578 17.8907 15.5304 19.6725 16.9289 21.0711C18.3275 22.4696 20.1093 23.422 22.0491 23.8079C23.9889 24.1937 25.9996 23.9957 27.8268 23.2388C29.6541 22.4819 31.2159 21.2002 32.3147 19.5557C33.4135 17.9112 34 15.9778 34 14C34 11.3478 32.9464 8.8043 31.0711 6.92893C29.1957 5.05357 26.6522 4 24 4V4ZM24 20C22.8133 20 21.6533 19.6481 20.6666 18.9888C19.6799 18.3295 18.9108 17.3925 18.4567 16.2961C18.0026 15.1997 17.8838 13.9933 18.1153 12.8295C18.3468 11.6656 18.9182 10.5965 19.7574 9.75736C20.5965 8.91824 21.6656 8.3468 22.8295 8.11529C23.9933 7.88378 25.1997 8.0026 26.2961 8.45672C27.3925 8.91085 28.3295 9.67988 28.9888 10.6666C29.6481 11.6533 30 12.8133 30 14C30 15.5913 29.3679 17.1174 28.2426 18.2426C27.1174 19.3679 25.5913 20 24 20V20ZM42 42V40C42 36.287 40.525 32.726 37.8995 30.1005C35.274 27.475 31.713 26 28 26H20C16.287 26 12.726 27.475 10.1005 30.1005C7.475 32.726 6 36.287 6 40V42H10V40C10 37.3478 11.0536 34.8043 12.9289 32.9289C14.8043 31.0536 17.3478 30 20 30H28C30.6522 30 33.1957 31.0536 35.0711 32.9289C36.9464 34.8043 38 37.3478 38 40V42H42Z" fill="#333333"/>
</svg>
