<svg width="59" height="38" viewBox="0 0 59 38" fill="none" xmlns="http://www.w3.org/2000/svg">
<path d="M13.125 24.3333C14.7099 24.333 16.2462 24.8637 17.474 25.8356C18.7018 26.8075 19.5455 28.1609 19.8625 29.6667H39.25V3.00001H9C7.54131 3.00001 6.14236 3.56191 5.11091 4.56211C4.07946 5.5623 3.5 6.91886 3.5 8.33334V29.6667H6.3875C6.70448 28.1609 7.54825 26.8075 8.77601 25.8356C10.0038 24.8637 11.5401 24.333 13.125 24.3333ZM13.125 37.6667C11.5401 37.667 10.0038 37.1363 8.77601 36.1644C7.54825 35.1925 6.70448 33.8392 6.3875 32.3333H0.75V8.33334C0.75 6.21161 1.61919 4.17678 3.16637 2.67649C4.71354 1.1762 6.81196 0.333344 9 0.333344H39.25C39.9793 0.333344 40.6788 0.614296 41.1945 1.11439C41.7103 1.61449 42 2.29277 42 3.00001V8.33334H50.25L58.5 18.9493V32.3333H52.8625C52.5469 33.8404 51.7037 35.1953 50.4759 36.1685C49.248 37.1417 47.7109 37.6734 46.125 37.6734C44.5391 37.6734 43.002 37.1417 41.7741 36.1685C40.5463 35.1953 39.7031 33.8404 39.3875 32.3333H19.8625C19.5455 33.8392 18.7018 35.1925 17.474 36.1644C16.2462 37.1363 14.7099 37.667 13.125 37.6667V37.6667ZM13.125 27C12.031 27 10.9818 27.4214 10.2082 28.1716C9.4346 28.9217 9 29.9391 9 31C9 32.0609 9.4346 33.0783 10.2082 33.8284C10.9818 34.5786 12.031 35 13.125 35C14.219 35 15.2682 34.5786 16.0418 33.8284C16.8154 33.0783 17.25 32.0609 17.25 31C17.25 29.9391 16.8154 28.9217 16.0418 28.1716C15.2682 27.4214 14.219 27 13.125 27ZM46.125 24.3333C47.7099 24.333 49.2462 24.8637 50.474 25.8356C51.7018 26.8075 52.5455 28.1609 52.8625 29.6667H55.75V19.8427L55.0955 19H42V25.6667C43.1891 24.7995 44.6371 24.3314 46.125 24.3333V24.3333ZM46.125 27C45.031 27 43.9818 27.4214 43.2082 28.1716C42.4346 28.9217 42 29.9391 42 31C42 32.0609 42.4346 33.0783 43.2082 33.8284C43.9818 34.5786 45.031 35 46.125 35C47.219 35 48.2682 34.5786 49.0418 33.8284C49.8154 33.0783 50.25 32.0609 50.25 31C50.25 29.9391 49.8154 28.9217 49.0418 28.1716C48.2682 27.4214 47.219 27 46.125 27ZM42 11V16.3333H53.0248L48.875 11H42Z" fill="#333333"/>
</svg>
