<svg width="40" height="40" viewBox="0 0 40 40" fill="none" xmlns="http://www.w3.org/2000/svg">
<path d="M15.1867 13.77L9.95 26.2634H6.53333L3.95667 16.2917C3.8 15.6784 3.665 15.4534 3.18833 15.195C2.41167 14.7734 1.12833 14.3784 0 14.1317L0.0766667 13.77H5.57667C5.93608 13.7697 6.28378 13.8978 6.55701 14.1313C6.83025 14.3648 7.011 14.6883 7.06667 15.0434L8.42833 22.2734L11.7917 13.77H15.1867ZM28.575 22.185C28.5883 18.8867 24.015 18.705 24.0467 17.2317C24.0567 16.7834 24.4833 16.3067 25.4167 16.185C26.5105 16.0812 27.6121 16.2746 28.605 16.745L29.1717 14.095C28.2049 13.7316 27.1811 13.5437 26.1483 13.54C22.9533 13.54 20.705 15.24 20.685 17.6717C20.665 19.47 22.29 20.4717 23.515 21.0717C24.775 21.6834 25.1983 22.0767 25.1917 22.6234C25.1833 23.4634 24.1883 23.8317 23.2583 23.8467C21.6333 23.8717 20.6917 23.4084 19.9383 23.0584L19.3533 25.795C20.1083 26.1417 21.5017 26.445 22.9467 26.4584C26.3417 26.4584 28.5633 24.7817 28.575 22.185ZM37.01 26.2634H40L37.3917 13.77H34.6317C34.3368 13.7673 34.0479 13.8532 33.8024 14.0167C33.5569 14.1801 33.3662 14.4136 33.255 14.6867L28.4067 26.2634H31.8L32.475 24.3967H36.6217L37.01 26.2634ZM33.405 21.8367L35.105 17.145L36.085 21.8367H33.405ZM19.805 13.77L17.1333 26.2634H13.9L16.575 13.77H19.805Z" fill="#333333"/>
</svg>
